<svg width="16" height="16" viewBox="0 0 16 16" fill="none" xmlns="http://www.w3.org/2000/svg">
<path fill-rule="evenodd" clip-rule="evenodd" d="M11.7187 1.87964C10.3905 1.1454 8.85964 0.862697 7.3568 1.07414C5.85912 1.28485 4.47012 1.97494 3.39758 3.04089L2 4.35443V2.99976C2 2.44747 1.55228 1.99976 1 1.99976C0.447715 1.99976 0 2.44747 0 2.99976L7.68978e-09 6.66683L0 6.99976C0 7.55204 0.447715 7.99976 1 7.99976H5C5.55228 7.99976 6 7.55204 6 6.99976C6 6.44747 5.55228 5.99976 5 5.99976H3.16972L4.77786 4.48832C4.78518 4.48144 4.7924 4.47445 4.79951 4.46735C5.56669 3.70147 6.56198 3.20566 7.63544 3.05463C8.7089 2.9036 9.80237 3.10553 10.7511 3.62999C11.6998 4.15445 12.4524 4.97304 12.8954 5.9624C13.3385 6.95177 13.4479 8.05832 13.2074 9.11532C12.9669 10.1723 12.3893 11.1225 11.5618 11.8228C10.7343 12.523 9.70159 12.9353 8.61935 12.9976C7.53711 13.0599 6.46394 12.7688 5.56154 12.1681C4.65914 11.5674 3.9764 10.6898 3.61618 9.66735C3.43266 9.14644 2.86161 8.87294 2.34071 9.05647C1.81981 9.23999 1.54631 9.81104 1.72983 10.3319C2.23413 11.7633 3.18998 12.9921 4.45334 13.833C5.7167 14.6739 7.21914 15.0815 8.73427 14.9943C10.2494 14.9071 11.6952 14.3298 12.8537 13.3495C14.0122 12.3692 14.8208 11.0389 15.1576 9.55911C15.4943 8.0793 15.341 6.53013 14.7208 5.14501C14.1005 3.7599 13.0469 2.61389 11.7187 1.87964Z" fill="#062856"/>
</svg>
