<svg width="24" height="24" viewBox="0 0 24 24" fill="none" xmlns="http://www.w3.org/2000/svg">
<path d="M17.7071 13.7071L20.3552 16.3552C20.7113 16.7113 20.7113 17.2887 20.3552 17.6448C18.43 19.57 15.3821 19.7866 13.204 18.153L11.6286 16.9714C9.88504 15.6638 8.33622 14.115 7.02857 12.3714L5.84701 10.796C4.21341 8.61788 4.43001 5.56999 6.35523 3.64477C6.71133 3.28867 7.28867 3.28867 7.64477 3.64477L10.2929 6.29289C10.6834 6.68342 10.6834 7.31658 10.2929 7.70711L9.27175 8.72825C9.10946 8.89054 9.06923 9.13846 9.17187 9.34373C10.3585 11.7171 12.2829 13.6415 14.6563 14.8281C14.8615 14.9308 15.1095 14.8905 15.2717 14.7283L16.2929 13.7071C16.6834 13.3166 17.3166 13.3166 17.7071 13.7071Z" fill="#7E869E" fill-opacity="0.25"/>
<path d="M20.3552 16.3552L19.931 16.7795L19.931 16.7795L20.3552 16.3552ZM17.7071 13.7071L18.1314 13.2828L17.7071 13.7071ZM10.2929 6.29289L10.7172 5.86863L10.7172 5.86863L10.2929 6.29289ZM7.64477 3.64477L8.06903 3.2205V3.2205L7.64477 3.64477ZM5.84701 10.796L6.32701 10.436L5.84701 10.796ZM7.02857 12.3714L6.54857 12.7314L7.02857 12.3714ZM11.6286 16.9714L11.9886 16.4914V16.4914L11.6286 16.9714ZM13.204 18.153L12.844 18.633V18.633L13.204 18.153ZM14.6563 14.8281L14.9246 14.2915L14.9246 14.2915L14.6563 14.8281ZM9.17187 9.34373L8.63521 9.61206V9.61206L9.17187 9.34373ZM20.3552 17.6448L19.931 17.2205L20.3552 17.6448ZM6.35523 3.64477L6.7795 4.06903V4.06903L6.35523 3.64477ZM20.7795 15.931L18.1314 13.2828L17.2828 14.1314L19.931 16.7795L20.7795 15.931ZM10.7172 5.86863L8.06903 3.2205L7.2205 4.06903L9.86863 6.71716L10.7172 5.86863ZM9.69601 9.15252L10.7172 8.13137L9.86863 7.28284L8.84748 8.30399L9.69601 9.15252ZM15.8686 13.2828L14.8475 14.304L15.696 15.1525L16.7172 14.1314L15.8686 13.2828ZM5.36701 11.156L6.54857 12.7314L7.50857 12.0114L6.32701 10.436L5.36701 11.156ZM11.2686 17.4514L12.844 18.633L13.564 17.673L11.9886 16.4914L11.2686 17.4514ZM6.54857 12.7314C7.89033 14.5204 9.47956 16.1097 11.2686 17.4514L11.9886 16.4914C10.2905 15.2179 8.78211 13.7095 7.50857 12.0114L6.54857 12.7314ZM14.9246 14.2915C12.6674 13.1629 10.8371 11.3326 9.70852 9.0754L8.63521 9.61206C9.87993 12.1015 11.8985 14.1201 14.3879 15.3648L14.9246 14.2915ZM14.8475 14.304C14.8678 14.2837 14.8989 14.2786 14.9246 14.2915L14.3879 15.3648C14.8242 15.5829 15.3511 15.4974 15.696 15.1525L14.8475 14.304ZM8.84748 8.30399C8.50258 8.64889 8.41708 9.17579 8.63521 9.61206L9.70852 9.07541C9.72138 9.10112 9.71634 9.13219 9.69601 9.15252L8.84748 8.30399ZM9.86863 6.71716C10.0248 6.87337 10.0248 7.12663 9.86863 7.28284L10.7172 8.13137C11.342 7.50653 11.342 6.49347 10.7172 5.86863L9.86863 6.71716ZM18.1314 13.2828C17.5065 12.658 16.4935 12.658 15.8686 13.2828L16.7172 14.1314C16.8734 13.9752 17.1266 13.9752 17.2828 14.1314L18.1314 13.2828ZM20.7795 18.069C21.3699 17.4786 21.3699 16.5214 20.7795 15.931L19.931 16.7795C20.0527 16.9013 20.0527 17.0987 19.931 17.2205L20.7795 18.069ZM19.931 17.2205C18.2169 18.9346 15.5033 19.1274 13.564 17.673L12.844 18.633C15.261 20.4457 18.6431 20.2054 20.7795 18.069L19.931 17.2205ZM5.93097 3.2205C3.79461 5.35686 3.55425 8.739 5.36701 11.156L6.32701 10.436C4.87256 8.49675 5.06541 5.78312 6.7795 4.06903L5.93097 3.2205ZM6.7795 4.06903C6.90128 3.94725 7.09872 3.94725 7.2205 4.06903L8.06903 3.2205C7.47862 2.63009 6.52138 2.63009 5.93097 3.2205L6.7795 4.06903Z" fill="#1F2324"/>
</svg>
