<svg width="49" height="49" viewBox="0 0 49 49" fill="none" xmlns="http://www.w3.org/2000/svg">
<path d="M47.273 38.47C46.871 38.47 46.545 38.795 46.545 39.198V44.364C46.545 45.568 45.566 46.547 44.363 46.547H34.445C34.044 46.547 33.717 46.872 33.717 47.274C33.717 47.676 34.043 48.002 34.445 48.002H44.363C46.368 48.002 47.9991 46.371 47.9991 44.365V39.199C48.0001 38.795 47.675 38.47 47.273 38.47Z" fill="#1A171B"/>
<path d="M44.364 0H3.63699C1.63199 0 0 1.63199 0 3.63699V8V47.272C0 47.674 0.324997 48 0.727997 48H28.627C29.028 48 29.354 47.675 29.354 47.272V39.444L31.833 37.644C31.935 37.689 32.04 37.733 32.146 37.775L32.725 41.401C32.774 41.71 33.015 41.952 33.324 42.004C33.991 42.113 34.679 42.17 35.372 42.17C36.064 42.17 36.754 42.113 37.421 42.004C37.73 41.952 37.972 41.71 38.021 41.401L38.599 37.774C38.703 37.732 38.807 37.689 38.91 37.643L41.881 39.801C42.137 39.986 42.48 39.987 42.734 39.803C43.853 38.998 44.827 38.024 45.629 36.906C45.812 36.651 45.812 36.308 45.627 36.054L43.47 33.082C43.516 32.978 43.56 32.875 43.6 32.772L47.228 32.195C47.538 32.146 47.78 31.904 47.831 31.594C47.944 30.906 48.001 30.217 48.001 29.546C48.001 28.875 47.943 28.187 47.831 27.497C47.78 27.187 47.538 26.946 47.227 26.897L43.6 26.32C43.559 26.217 43.515 26.114 43.469 26.009L45.626 23.04C45.809 22.786 45.811 22.444 45.629 22.19C44.829 21.07 43.855 20.094 42.733 19.288C42.479 19.106 42.135 19.106 41.881 19.291L38.91 21.448C38.806 21.403 38.702 21.359 38.599 21.318L38.021 17.69C37.972 17.38 37.73 17.137 37.421 17.086C36.069 16.863 34.673 16.864 33.324 17.086C33.015 17.137 32.774 17.38 32.725 17.69L32.146 21.318C32.043 21.358 31.94 21.401 31.836 21.447L29.355 19.648V14.524C29.355 14.508 29.347 14.495 29.346 14.479C29.342 14.415 29.33 14.352 29.308 14.291C29.3 14.268 29.294 14.246 29.284 14.223C29.249 14.147 29.204 14.074 29.142 14.01L22.615 7.48401C22.552 7.42101 22.479 7.377 22.402 7.341C22.38 7.331 22.358 7.32399 22.335 7.31699C22.273 7.29599 22.211 7.284 22.146 7.28C22.131 7.279 22.117 7.271 22.102 7.271H1.457V3.634C1.457 2.431 2.43598 1.452 3.63898 1.452H44.366C45.569 1.452 46.548 2.431 46.548 3.634V7.271H28.63C28.228 7.271 27.902 7.59599 27.902 7.99799C27.902 8.39999 28.227 8.72601 28.63 8.72601H46.548V19.893C46.548 20.295 46.873 20.621 47.276 20.621C47.678 20.621 48.003 20.296 48.003 19.893V7.99799V3.63501C48 1.63201 46.369 0 44.364 0ZM1.45398 46.546V8.728H21.371V14.528C21.371 14.929 21.696 15.255 22.099 15.255H27.899V19.379C26.823 20.17 25.885 21.114 25.113 22.192C24.931 22.448 24.931 22.79 25.116 23.044L27.272 26.013C27.227 26.116 27.184 26.22 27.143 26.324L23.518 26.901C23.21 26.95 22.967 27.19 22.914 27.499C22.801 28.173 22.745 28.862 22.745 29.55C22.745 30.238 22.801 30.928 22.914 31.601C22.966 31.909 23.209 32.15 23.518 32.199L27.143 32.776C27.184 32.88 27.226 32.983 27.272 33.086L25.115 36.058C24.931 36.312 24.93 36.656 25.113 36.91C25.888 37.989 26.826 38.932 27.899 39.723V46.55H1.45398V46.546ZM32.075 22.943C32.409 22.777 32.72 22.649 33.025 22.548C33.283 22.463 33.472 22.24 33.514 21.972L34.075 18.451C34.936 18.349 35.807 18.349 36.669 18.451L37.229 21.972C37.271 22.241 37.46 22.462 37.718 22.548C38.025 22.65 38.343 22.782 38.665 22.943C38.907 23.064 39.196 23.04 39.416 22.88L42.3 20.786C42.983 21.326 43.596 21.94 44.133 22.621L42.039 25.504C41.88 25.724 41.856 26.013 41.977 26.255C42.141 26.585 42.27 26.895 42.374 27.203C42.459 27.461 42.682 27.648 42.95 27.69L46.469 28.25C46.521 28.688 46.547 29.122 46.547 29.547C46.547 29.972 46.521 30.406 46.469 30.843L42.95 31.403C42.682 31.446 42.46 31.633 42.374 31.891C42.27 32.199 42.138 32.516 41.978 32.834C41.856 33.077 41.881 33.368 42.04 33.587L44.134 36.473C43.596 37.155 42.982 37.769 42.301 38.308L39.417 36.213C39.197 36.054 38.905 36.03 38.664 36.152C38.356 36.305 38.038 36.439 37.717 36.547C37.461 36.634 37.273 36.856 37.231 37.122L36.671 40.64C35.818 40.74 34.93 40.74 34.077 40.64L33.516 37.122C33.474 36.854 33.286 36.633 33.029 36.547C32.688 36.433 32.38 36.305 32.088 36.155C31.846 36.03 31.552 36.052 31.329 36.213L28.444 38.308C27.764 37.768 27.149 37.153 26.611 36.473L28.705 33.587C28.865 33.367 28.888 33.074 28.765 32.831C28.61 32.526 28.478 32.211 28.374 31.893C28.288 31.635 28.066 31.446 27.797 31.403L24.278 30.843C24.227 30.414 24.202 29.981 24.202 29.547C24.202 29.113 24.227 28.68 24.278 28.25L27.797 27.69C28.066 27.648 28.288 27.459 28.374 27.2C28.478 26.885 28.61 26.568 28.766 26.259C28.889 26.016 28.866 25.724 28.704 25.504L26.611 22.621C27.147 21.941 27.762 21.326 28.444 20.786L31.33 22.878C31.546 23.037 31.834 23.061 32.075 22.943ZM26.87 13.8H22.826V9.75601L26.87 13.8Z" fill="#1A171B"/>
<path d="M43.9641 4.87699C44.1031 4.74699 44.182 4.55797 44.182 4.36097C44.182 4.17197 44.102 3.98299 43.971 3.85099C43.701 3.58099 43.207 3.57599 42.938 3.85099C42.8 3.98299 42.7271 4.17097 42.7271 4.36097C42.7271 4.55696 42.8 4.73899 42.938 4.87699C43.077 5.01599 43.266 5.08799 43.455 5.08799C43.645 5.08799 43.8341 5.01599 43.9641 4.87699Z" fill="#1A171B"/>
<path d="M39.456 5.08804C39.8575 5.08804 40.183 4.76253 40.183 4.36102C40.183 3.95951 39.8575 3.63403 39.456 3.63403C39.0545 3.63403 38.729 3.95951 38.729 4.36102C38.729 4.76253 39.0545 5.08804 39.456 5.08804Z" fill="#1A171B"/>
<path d="M35.972 4.87706C36.104 4.73906 36.183 4.55004 36.183 4.36104C36.183 4.17204 36.104 3.98304 35.972 3.84404C35.696 3.57504 35.209 3.58104 34.939 3.84404C34.809 3.98304 34.728 4.17104 34.728 4.36104C34.728 4.55704 34.809 4.74706 34.939 4.87706C35.077 5.01606 35.26 5.08806 35.455 5.08806C35.645 5.08806 35.834 5.01606 35.972 4.87706Z" fill="#1A171B"/>
<path d="M35.3711 33.909C37.7771 33.909 39.7361 31.953 39.7361 29.548C39.7361 27.14 37.7781 25.183 35.3711 25.183C32.9651 25.183 31.0081 27.14 31.0081 29.548C31.0091 31.953 32.9661 33.909 35.3711 33.909ZM35.3711 26.637C36.9751 26.637 38.281 27.943 38.281 29.548C38.281 31.151 36.9751 32.455 35.3711 32.455C33.7671 32.455 32.463 31.15 32.463 29.548C32.463 27.943 33.7671 26.637 35.3711 26.637Z" fill="#1A171B"/>
<path d="M5.68304 15.254H16.85C17.252 15.254 17.5781 14.929 17.5781 14.527C17.5781 14.125 17.253 13.799 16.85 13.799H5.68304C5.28204 13.799 4.95605 14.125 4.95605 14.527C4.95605 14.929 5.28204 15.254 5.68304 15.254Z" fill="#1A171B"/>
<path d="M21.942 19.968H5.68304C5.28204 19.968 4.95605 20.293 4.95605 20.695C4.95605 21.097 5.28104 21.423 5.68304 21.423H21.942C22.344 21.423 22.67 21.098 22.67 20.695C22.669 20.293 22.344 19.968 21.942 19.968Z" fill="#1A171B"/>
<path d="M5.68304 27.589H19.032C19.434 27.589 19.7591 27.264 19.7591 26.861C19.7591 26.46 19.434 26.134 19.032 26.134H5.68304C5.28204 26.134 4.95605 26.459 4.95605 26.861C4.95605 27.264 5.28204 27.589 5.68304 27.589Z" fill="#1A171B"/>
<path d="M5.68304 33.757H19.032C19.434 33.757 19.7591 33.432 19.7591 33.029C19.7591 32.626 19.434 32.301 19.032 32.301H5.68304C5.28204 32.301 4.95605 32.626 4.95605 33.029C4.95605 33.432 5.28204 33.757 5.68304 33.757Z" fill="#1A171B"/>
<path d="M21.942 38.47H5.68304C5.28204 38.47 4.95605 38.795 4.95605 39.198C4.95605 39.601 5.28104 39.926 5.68304 39.926H21.942C22.344 39.926 22.67 39.601 22.67 39.198C22.67 38.795 22.344 38.47 21.942 38.47Z" fill="#1A171B"/>
</svg>
