<svg width="106" height="30" viewBox="0 0 106 30" fill="none" xmlns="http://www.w3.org/2000/svg">
<path d="M36.2102 13.8838H38.4578V19.1516H45.5283V13.8838H47.7759V26.2924H45.5283V21.0948H38.4578V26.2924H36.2102V13.8838Z" fill="#1F2324"/>
<path d="M64.7655 24.3257V29.1721H62.6584V26.2924H52.2867V29.1721H50.1561V24.3257H50.8117C51.6077 24.2789 52.154 23.717 52.4506 22.64C52.7471 21.5631 52.95 20.0413 53.0593 18.0746L53.2466 13.8838H62.8691V24.3257H64.7655ZM55.1196 18.2385C55.0571 19.7993 54.9245 21.0948 54.7216 22.125C54.5343 23.1395 54.1831 23.8731 53.668 24.3257H60.6215V15.8504H55.2366L55.1196 18.2385Z" fill="#1F2324"/>
<path d="M78.9081 20.1583C78.9081 20.33 78.8925 20.5563 78.8612 20.8373H68.7939C68.9344 21.9299 69.4104 22.8117 70.2221 23.4829C71.0493 24.1384 72.0716 24.4662 73.2891 24.4662C74.7719 24.4662 75.9659 23.9667 76.8712 22.9678L78.112 24.4194C77.5501 25.0749 76.8478 25.5744 76.0049 25.9178C75.1777 26.2612 74.249 26.4328 73.2188 26.4328C71.9077 26.4328 70.7449 26.1675 69.7304 25.6368C68.7159 25.0905 67.9276 24.3335 67.3657 23.3658C66.8194 22.3981 66.5463 21.3055 66.5463 20.0881C66.5463 18.8862 66.8116 17.8015 67.3423 16.8338C67.8886 15.866 68.63 15.1168 69.5665 14.5862C70.5186 14.0399 71.5878 13.7667 72.774 13.7667C73.9602 13.7667 75.0138 14.0399 75.9347 14.5862C76.8712 15.1168 77.597 15.866 78.112 16.8338C78.6427 17.8015 78.9081 18.9097 78.9081 20.1583ZM72.774 15.6631C71.697 15.6631 70.7918 15.9909 70.0582 16.6465C69.3402 17.302 68.9188 18.1605 68.7939 19.2218H76.7541C76.6293 18.1761 76.2 17.3254 75.4664 16.6699C74.7485 15.9987 73.851 15.6631 72.774 15.6631Z" fill="#1F2324"/>
<path d="M87.8031 26.4328C86.5389 26.4328 85.4073 26.1597 84.4083 25.6134C83.425 25.0671 82.6524 24.3179 82.0905 23.3658C81.5286 22.3981 81.2477 21.3055 81.2477 20.0881C81.2477 18.8706 81.5286 17.7859 82.0905 16.8338C82.6524 15.866 83.425 15.1168 84.4083 14.5862C85.4073 14.0399 86.5389 13.7667 87.8031 13.7667C88.9269 13.7667 89.9259 13.993 90.7999 14.4457C91.6896 14.8983 92.3764 15.5539 92.8602 16.4123L91.1511 17.5127C90.7609 16.9196 90.2771 16.4748 89.6995 16.1782C89.122 15.8816 88.4821 15.7334 87.7797 15.7334C86.9681 15.7334 86.2345 15.9129 85.579 16.2719C84.939 16.6308 84.4318 17.1459 84.0572 17.8171C83.6982 18.4726 83.5187 19.2296 83.5187 20.0881C83.5187 20.9621 83.6982 21.7348 84.0572 22.4059C84.4318 23.0615 84.939 23.5687 85.579 23.9277C86.2345 24.2867 86.9681 24.4662 87.7797 24.4662C88.4821 24.4662 89.122 24.3179 89.6995 24.0214C90.2771 23.7248 90.7609 23.28 91.1511 22.6869L92.8602 23.7638C92.3764 24.6223 91.6896 25.2856 90.7999 25.7539C89.9259 26.2065 88.9269 26.4328 87.8031 26.4328Z" fill="#1F2324"/>
<path d="M100.195 13.7667C101.912 13.7667 103.223 14.1881 104.128 15.031C105.049 15.8738 105.51 17.1303 105.51 18.8004V26.2924H103.379V24.6535C103.005 25.231 102.466 25.6758 101.764 25.988C101.077 26.2846 100.258 26.4328 99.3054 26.4328C97.9163 26.4328 96.8003 26.0973 95.9574 25.4261C95.1302 24.755 94.7166 23.8731 94.7166 22.7805C94.7166 21.6879 95.1146 20.8139 95.9106 20.1583C96.7066 19.4872 97.9709 19.1516 99.7034 19.1516H103.262V18.7067C103.262 17.739 102.981 16.9976 102.419 16.4826C101.857 15.9675 101.03 15.71 99.9375 15.71C99.204 15.71 98.486 15.8348 97.7836 16.0846C97.0812 16.3187 96.4881 16.6386 96.0043 17.0445L95.0678 15.3588C95.7077 14.8437 96.4725 14.4535 97.3622 14.1881C98.2519 13.9072 99.1961 13.7667 100.195 13.7667ZM99.68 24.7003C100.538 24.7003 101.28 24.513 101.904 24.1384C102.529 23.7482 102.981 23.2019 103.262 22.4996V20.767H99.7971C97.8929 20.767 96.9408 21.407 96.9408 22.6869C96.9408 23.3112 97.1827 23.8028 97.6665 24.1618C98.1504 24.5208 98.8216 24.7003 99.68 24.7003Z" fill="#1F2324"/>
<path d="M16.0459 0L0.773682 25.9732H7.73101L15.3105 20.1761V23.1315L34.429 10.5711L19.6659 16.4819V14.1517L11.1248 18.0164L16.0459 9.60495L17.7428 14.1517L20.571 12.8445V15.061L24.1345 13.697L16.0459 0Z" fill="#1648A8"/>
<path d="M22.0416 25.9732L20.175 20.9718L26.1142 17.107L31.318 25.9732H22.0416Z" fill="#1648A8"/>
</svg>
